<svg width="798" height="270" viewBox="0 0 798 270" fill="none" xmlns="http://www.w3.org/2000/svg">
<path d="M203.142 224.55V202.732H210.514C212.226 202.732 213.625 203.041 214.712 203.659C215.805 204.27 216.615 205.097 217.141 206.141C217.666 207.185 217.929 208.35 217.929 209.635C217.929 210.921 217.666 212.089 217.141 213.14C216.622 214.191 215.82 215.029 214.733 215.654C213.646 216.272 212.254 216.581 210.557 216.581H205.273V214.238H210.472C211.643 214.238 212.585 214.035 213.295 213.63C214.005 213.225 214.52 212.679 214.839 211.99C215.166 211.294 215.33 210.509 215.33 209.635C215.33 208.762 215.166 207.98 214.839 207.292C214.52 206.603 214.001 206.063 213.284 205.672C212.567 205.274 211.615 205.076 210.429 205.076H205.784V224.55H203.142ZM222.185 224.55V202.732H235.353V205.076H224.827V212.448H234.671V214.792H224.827V222.206H235.523V224.55H222.185ZM240.115 224.55V202.732H253.282V205.076H242.757V212.448H252.6V214.792H242.757V222.206H253.453V224.55H240.115ZM258.044 224.55V202.732H265.417C267.121 202.732 268.52 203.023 269.614 203.605C270.708 204.181 271.517 204.973 272.043 205.981C272.569 206.99 272.831 208.137 272.831 209.422C272.831 210.708 272.569 211.848 272.043 212.842C271.517 213.836 270.711 214.618 269.625 215.186C268.538 215.747 267.15 216.027 265.459 216.027H259.493V213.641H265.374C266.539 213.641 267.476 213.471 268.186 213.13C268.904 212.789 269.422 212.306 269.742 211.681C270.069 211.049 270.232 210.296 270.232 209.422C270.232 208.549 270.069 207.785 269.742 207.132C269.415 206.478 268.893 205.974 268.176 205.619C267.458 205.257 266.51 205.076 265.331 205.076H260.686V224.55H258.044ZM268.314 214.749L273.684 224.55H270.615L265.331 214.749H268.314ZM286.268 212.469V214.813H276.722V212.469H286.268ZM287.613 205.076V202.732H303.977V205.076H297.116V224.55H294.474V205.076H287.613ZM325.555 213.641C325.555 215.942 325.14 217.931 324.309 219.607C323.478 221.283 322.338 222.576 320.889 223.485C319.44 224.394 317.785 224.848 315.924 224.848C314.064 224.848 312.409 224.394 310.96 223.485C309.511 222.576 308.371 221.283 307.54 219.607C306.709 217.931 306.294 215.942 306.294 213.641C306.294 211.34 306.709 209.351 307.54 207.675C308.371 205.999 309.511 204.706 310.96 203.797C312.409 202.888 314.064 202.434 315.924 202.434C317.785 202.434 319.44 202.888 320.889 203.797C322.338 204.706 323.478 205.999 324.309 207.675C325.14 209.351 325.555 211.34 325.555 213.641ZM322.998 213.641C322.998 211.752 322.682 210.157 322.05 208.858C321.425 207.558 320.576 206.574 319.504 205.907C318.439 205.239 317.245 204.905 315.924 204.905C314.603 204.905 313.407 205.239 312.334 205.907C311.269 206.574 310.42 207.558 309.788 208.858C309.163 210.157 308.85 211.752 308.85 213.641C308.85 215.53 309.163 217.125 309.788 218.424C310.42 219.724 311.269 220.708 312.334 221.375C313.407 222.043 314.603 222.377 315.924 222.377C317.245 222.377 318.439 222.043 319.504 221.375C320.576 220.708 321.425 219.724 322.05 218.424C322.682 217.125 322.998 215.53 322.998 213.641ZM339.032 212.469V214.813H329.486V212.469H339.032ZM343.796 224.55V202.732H351.169C352.88 202.732 354.279 203.041 355.366 203.659C356.46 204.27 357.269 205.097 357.795 206.141C358.32 207.185 358.583 208.35 358.583 209.635C358.583 210.921 358.32 212.089 357.795 213.14C357.276 214.191 356.474 215.029 355.387 215.654C354.301 216.272 352.909 216.581 351.211 216.581H345.927V214.238H351.126C352.298 214.238 353.239 214.035 353.949 213.63C354.659 213.225 355.174 212.679 355.494 211.99C355.82 211.294 355.984 210.509 355.984 209.635C355.984 208.762 355.82 207.98 355.494 207.292C355.174 206.603 354.656 206.063 353.938 205.672C353.221 205.274 352.269 205.076 351.083 205.076H346.438V224.55H343.796ZM362.839 224.55V202.732H376.007V205.076H365.481V212.448H375.325V214.792H365.481V222.206H376.177V224.55H362.839ZM380.769 224.55V202.732H393.937V205.076H383.411V212.448H393.255V214.792H383.411V222.206H394.107V224.55H380.769ZM398.699 224.55V202.732H406.071C407.775 202.732 409.175 203.023 410.268 203.605C411.362 204.181 412.172 204.973 412.697 205.981C413.223 206.99 413.486 208.137 413.486 209.422C413.486 210.708 413.223 211.848 412.697 212.842C412.172 213.836 411.366 214.618 410.279 215.186C409.192 215.747 407.804 216.027 406.113 216.027H400.148V213.641H406.028C407.193 213.641 408.131 213.471 408.841 213.13C409.558 212.789 410.077 212.306 410.396 211.681C410.723 211.049 410.886 210.296 410.886 209.422C410.886 208.549 410.723 207.785 410.396 207.132C410.069 206.478 409.547 205.974 408.83 205.619C408.113 205.257 407.165 205.076 405.986 205.076H401.341V224.55H398.699ZM408.969 214.749L414.338 224.55H411.27L405.986 214.749H408.969ZM428.968 202.732V224.55H426.326V202.732H428.968ZM451.566 202.732V224.55H449.009L437.12 207.419H436.907V224.55H434.265V202.732H436.822L448.754 219.905H448.967V202.732H451.566ZM468.785 208.186C468.657 207.107 468.138 206.269 467.229 205.672C466.32 205.076 465.205 204.777 463.884 204.777C462.918 204.777 462.073 204.934 461.349 205.246C460.631 205.559 460.07 205.988 459.665 206.535C459.268 207.082 459.069 207.703 459.069 208.399C459.069 208.982 459.207 209.483 459.484 209.902C459.768 210.314 460.131 210.658 460.571 210.935C461.011 211.205 461.473 211.429 461.956 211.606C462.439 211.777 462.883 211.915 463.288 212.022L465.504 212.618C466.072 212.767 466.704 212.973 467.4 213.236C468.103 213.499 468.774 213.858 469.413 214.312C470.06 214.76 470.592 215.335 471.011 216.038C471.43 216.741 471.64 217.604 471.64 218.627C471.64 219.806 471.331 220.871 470.713 221.823C470.102 222.774 469.207 223.531 468.028 224.092C466.857 224.653 465.433 224.934 463.756 224.934C462.194 224.934 460.841 224.681 459.697 224.177C458.561 223.673 457.666 222.97 457.013 222.068C456.366 221.166 456.001 220.118 455.915 218.925H458.643C458.714 219.749 458.991 220.431 459.474 220.971C459.964 221.503 460.582 221.901 461.327 222.164C462.08 222.419 462.89 222.547 463.756 222.547C464.765 222.547 465.67 222.384 466.473 222.057C467.276 221.723 467.911 221.262 468.38 220.672C468.849 220.076 469.083 219.38 469.083 218.584C469.083 217.86 468.881 217.27 468.476 216.816C468.071 216.361 467.538 215.992 466.878 215.708C466.217 215.424 465.504 215.175 464.737 214.962L462.052 214.195C460.347 213.705 458.998 213.005 458.004 212.096C457.009 211.187 456.512 209.997 456.512 208.527C456.512 207.306 456.842 206.24 457.503 205.331C458.17 204.415 459.065 203.705 460.188 203.201C461.317 202.689 462.577 202.434 463.969 202.434C465.376 202.434 466.626 202.686 467.719 203.19C468.813 203.687 469.68 204.369 470.319 205.235C470.965 206.102 471.306 207.086 471.342 208.186H468.785ZM490.302 202.732H492.944V217.178C492.944 218.669 492.593 220.001 491.889 221.173C491.193 222.338 490.21 223.257 488.938 223.932C487.667 224.6 486.176 224.934 484.464 224.934C482.752 224.934 481.261 224.6 479.99 223.932C478.718 223.257 477.731 222.338 477.028 221.173C476.332 220.001 475.984 218.669 475.984 217.178V202.732H478.626V216.965C478.626 218.03 478.86 218.978 479.329 219.809C479.798 220.633 480.465 221.283 481.332 221.759C482.205 222.228 483.249 222.462 484.464 222.462C485.678 222.462 486.722 222.228 487.596 221.759C488.47 221.283 489.137 220.633 489.599 219.809C490.068 218.978 490.302 218.03 490.302 216.965V202.732ZM498.22 224.55V202.732H505.592C507.297 202.732 508.696 203.023 509.79 203.605C510.884 204.181 511.693 204.973 512.219 205.981C512.744 206.99 513.007 208.137 513.007 209.422C513.007 210.708 512.744 211.848 512.219 212.842C511.693 213.836 510.887 214.618 509.8 215.186C508.714 215.747 507.325 216.027 505.635 216.027H499.669V213.641H505.55C506.714 213.641 507.652 213.471 508.362 213.13C509.08 212.789 509.598 212.306 509.918 211.681C510.244 211.049 510.408 210.296 510.408 209.422C510.408 208.549 510.244 207.785 509.918 207.132C509.591 206.478 509.069 205.974 508.352 205.619C507.634 205.257 506.686 205.076 505.507 205.076H500.862V224.55H498.22ZM508.49 214.749L513.859 224.55H510.791L505.507 214.749H508.49ZM518.305 224.55H515.535L523.546 202.732H526.273L534.285 224.55H531.515L524.995 206.184H524.824L518.305 224.55ZM519.327 216.027H530.492V218.371H519.327V216.027ZM554.984 202.732V224.55H552.427L540.538 207.419H540.325V224.55H537.683V202.732H540.24L552.172 219.905H552.385V202.732H554.984ZM577.828 209.55H575.186C575.029 208.79 574.756 208.122 574.365 207.547C573.982 206.972 573.513 206.489 572.959 206.098C572.412 205.701 571.805 205.402 571.137 205.203C570.47 205.005 569.774 204.905 569.049 204.905C567.728 204.905 566.532 205.239 565.459 205.907C564.394 206.574 563.545 207.558 562.913 208.858C562.288 210.157 561.975 211.752 561.975 213.641C561.975 215.53 562.288 217.125 562.913 218.424C563.545 219.724 564.394 220.708 565.459 221.375C566.532 222.043 567.728 222.377 569.049 222.377C569.774 222.377 570.47 222.277 571.137 222.078C571.805 221.88 572.412 221.585 572.959 221.194C573.513 220.796 573.982 220.31 574.365 219.735C574.756 219.152 575.029 218.485 575.186 217.732H577.828C577.629 218.847 577.267 219.845 576.741 220.725C576.216 221.606 575.562 222.355 574.781 222.973C574 223.584 573.123 224.049 572.15 224.369C571.184 224.689 570.15 224.848 569.049 224.848C567.189 224.848 565.534 224.394 564.085 223.485C562.636 222.576 561.496 221.283 560.665 219.607C559.834 217.931 559.419 215.942 559.419 213.641C559.419 211.34 559.834 209.351 560.665 207.675C561.496 205.999 562.636 204.706 564.085 203.797C565.534 202.888 567.189 202.434 569.049 202.434C570.15 202.434 571.184 202.593 572.15 202.913C573.123 203.233 574 203.701 574.781 204.319C575.562 204.93 576.216 205.676 576.741 206.556C577.267 207.43 577.629 208.428 577.828 209.55ZM582.097 224.55V202.732H595.265V205.076H584.739V212.448H594.583V214.792H584.739V222.206H595.435V224.55H582.097Z" fill="#183E77"/>
<path d="M328.59 134.61H344.91L336.75 111.28L328.59 134.61Z" fill="#183E77"/>
<path d="M528.16 124.14H516.93V140.94H528.16C532.86 140.94 540.25 139.79 540.25 132.49C540.25 123.47 528.16 124.14 528.16 124.14Z" fill="#183E77"/>
<path d="M539.29 104.56C539.29 95.5401 528.16 96.0201 528.16 96.0201H516.93V112.91H528.16C528.16 112.91 539.29 112.91 539.29 104.56Z" fill="#183E77"/>
<path d="M687.5 51.5H110.5C73.77 51.5 44 81.27 44 118C44 154.73 73.77 184.5 110.5 184.5H687.5C724.23 184.5 754 154.73 754 118C754 81.27 724.23 51.5 687.5 51.5ZM110.69 141.81C116.83 141.81 122.5 139.31 126.53 135.28L134.4 143.25C128.35 149.3 120 153.04 110.69 153.04C92.16 153.04 77 139.6 77 118.48C77 97.36 91.02 83.92 110.69 83.92C120 83.92 128.35 87.66 134.4 93.81L126.53 101.68C122.5 97.65 116.83 95.15 110.69 95.15C96.87 95.15 88.42 104.94 88.42 118.48C88.42 132.88 98.31 141.81 110.69 141.81ZM183.02 152.08H146.93V84.88H158.16V140.84H183.02V152.07V152.08ZM217.58 152.08H190.61V141.81H198.48V95.16H190.99V84.89H217.2V95.16H209.71V141.81H217.58V152.08ZM302.38 152.08H291.15V110.8L271.86 152.08H261.3L240.76 109.94V152.08H229.53V84.79H240.95L266.48 137.11L290.96 84.79H302.38V152.08ZM351.54 152.08L348.56 144.3H324.95L322.07 152.08H309.98L336.76 82.96L363.64 152.08H351.55H351.54ZM405.91 95.16H391.8V152.08H380.67V95.16H366.56V84.89H405.92V95.16H405.91ZM460.05 96.12H426.45V112.92H454.38V124.05H426.45V140.85H460.05V152.08H415.22V84.88H460.05V96.11V96.12ZM551.48 132.79C551.48 151.22 532.67 152.08 528.15 152.08H505.78V84.88H528.15C528.15 84.88 550.52 84.4 550.52 103.79C550.52 112.62 545.05 117.13 539.29 118.57C551.96 121.16 551.48 132.78 551.48 132.78V132.79ZM587.23 152.08H560.26V141.81H568.13V95.16H560.64V84.89H586.85V95.16H579.36V141.81H587.23V152.08ZM654.23 152.08H642.9L609.49 104.28V152.08H598.26V84.88H609.59L643.09 132.68V84.88H654.23V152.08ZM681.73 152.08H670.5V84.88H681.73C698.05 84.88 720.99 88.62 720.99 118.48C720.99 148.34 698.43 152.08 681.73 152.08Z" fill="#183E77"/>
<path d="M681.738 95.83V141.14C681.738 141.14 709.668 144.98 709.668 118.49C709.668 92 681.738 95.84 681.738 95.84V95.83Z" fill="#183E77"/>
<path d="M728.311 27.7998V25.0655H747.402V27.7998H739.398V50.52H736.316V27.7998H728.311ZM752.16 25.0655H755.839L764.489 46.1947H764.787L773.438 25.0655H777.117V50.52H774.233V31.1805H773.985L766.03 50.52H763.246L755.292 31.1805H755.043V50.52H752.16V25.0655Z" fill="#183E77"/>
</svg>
